<?xml version="1.0" encoding="utf-8"?>
<svg viewBox="0 0 500 500" xmlns="http://www.w3.org/2000/svg">
  <path d="M 342.315 278.756 C 347.528 279.489 352.714 280.412 357.872 281.523 L 357.872 282.521 C 352.746 281.426 347.561 280.517 342.315 279.792 C 332.364 278.414 322.338 277.717 312.301 277.704 L 311.962 277.704 C 279.712 277.73 247.844 285.047 218.525 299.157 C 212.45 302.069 206.511 305.254 200.709 308.709 C 181.476 320.166 163.906 334.458 148.534 351.15 C 138.142 362.432 128.829 374.757 120.728 387.949 C 119.701 389.616 118.696 391.299 117.713 392.997 C 113.76 399.808 110.136 406.824 106.856 414.018 C 99.841 429.413 94.455 445.57 90.796 462.198 C 90.709 462.554 90.632 462.915 90.555 463.277 C 90.534 463.38 90.508 463.488 90.488 463.59 L 89.486 463.353 C 89.492 463.325 89.497 463.304 89.502 463.277 C 89.579 462.915 89.656 462.559 89.738 462.198 C 93.479 445.163 99.004 428.616 106.214 412.858 L 106.214 412.853 C 109.673 405.27 113.512 397.884 117.713 390.727 C 118.699 389.044 119.704 387.374 120.728 385.715 C 128.827 372.635 138.113 360.408 148.457 349.208 C 154.782 342.359 161.493 335.914 168.553 329.908 L 168.558 329.903 C 178.64 321.334 189.395 313.68 200.709 307.021 C 205.501 304.194 210.361 301.573 215.29 299.157 C 245.692 284.199 278.873 276.503 312.445 276.62 C 322.435 276.649 332.413 277.362 342.315 278.756 Z" fill="#3f3d56" style=""/>
  <circle cx="552.929" cy="-27.152" r="54.315" fill="#ff6584" style="" transform="matrix(0.5135869979858398, 0, 0, 0.5394089818000793, -49.82174375387645, 141.80220243040026)"/>
  <path d="M 113.975 456.935 C 114.845 460.313 117.825 462.405 117.825 462.405 C 117.825 462.405 119.394 459.02 118.524 455.642 C 117.654 452.265 114.674 450.173 114.674 450.173 C 114.674 450.173 113.105 453.558 113.975 456.935 Z" fill="#3f3d56" style=""/>
  <path d="M 115.253 456.209 C 117.64 458.65 117.932 462.402 117.932 462.402 C 117.932 462.402 114.353 462.196 111.966 459.756 C 109.578 457.315 109.287 453.562 109.287 453.562 C 109.287 453.562 112.866 453.768 115.253 456.209 Z" fill="#6c63ff" style=""/>
  <path d="M 180.228 456.935 C 181.098 460.313 184.077 462.405 184.077 462.405 C 184.077 462.405 185.647 459.02 184.777 455.642 C 183.907 452.265 180.927 450.173 180.927 450.173 C 180.927 450.173 179.358 453.558 180.228 456.935 Z" fill="#3f3d56" style=""/>
  <path d="M 181.506 456.209 C 183.893 458.65 184.185 462.402 184.185 462.402 C 184.185 462.402 180.606 462.196 178.218 459.756 C 175.831 457.315 175.54 453.562 175.54 453.562 C 175.54 453.562 179.119 453.768 181.506 456.209 Z" fill="#6c63ff" style=""/>
  <path d="M 357.872 160.72 L 357.872 195.601 L 342.315 206.616 L 319.461 222.787 L 294.064 240.765 L 254.209 219.837 L 203.852 193.394 L 193.365 187.887 L 180.144 176.795 L 208.454 144.858 L 229.114 123.371 C 242.069 122.69 235.405 123.693 251.168 122.953 L 264.759 122.658 C 284.074 122.658 357.872 140.434 357.872 160.72 Z" fill="#3f3d56" style=""/>
  <path d="M 342.454 178.916 L 369.999 211.408 C 372.807 309.333 370.916 359.922 372.109 462.777 L 338.309 463.304 L 337.256 462.198 L 309.985 433.561 L 294.156 416.937 L 294.572 413.732 L 296.01 402.712 L 299.169 378.477 L 302.615 352.035 L 306.061 325.598 L 309.507 299.157 L 312.301 277.704 L 312.445 276.62 L 312.953 272.714 L 316.4 246.273 L 319.461 222.787 L 319.846 219.837 L 322.383 200.375 L 323.436 192.294 L 342.315 179.073 L 342.454 178.916 Z" fill="#ccc" style=""/>
  <path d="M 179.2 177.234 L 342.315 179.072 L 342.315 463.306 L 182.876 463.306 C 179.127 359.42 181.772 260.51 179.2 177.234 Z" fill="#f2f2f2" style=""/>
  <rect x="244.763" y="393.9" width="29.371" height="69.406" fill="#ccc" style=""/>
  <rect x="200.707" y="352.037" width="121.678" height="26.44" fill="#3f3d56" style=""/>
  <rect x="279.8" y="415.21" width="51.879" height="11.273" fill="#3f3d56" style=""/>
  <rect x="187.355" y="415.21" width="51.879" height="11.273" fill="#3f3d56" style=""/>
  <rect x="200.707" y="299.155" width="121.678" height="26.44" fill="#3f3d56" style=""/>
  <rect x="200.707" y="246.275" width="121.678" height="26.44" fill="#3f3d56" style=""/>
  <rect x="200.707" y="193.394" width="121.678" height="26.44" fill="#3f3d56" style=""/>
  <rect y="462.198" width="277.851" height="1.079" fill="#3f3d56" x="80.021" style=""/>
  <rect x="117.711" y="337.64" width="3.017" height="125.172" fill="#3f3d56" style=""/>
  <path d="M 148.574 353.592 C 148.766 397.361 119.445 432.986 119.445 432.986 C 119.445 432.986 89.814 397.647 89.622 353.877 C 89.43 310.108 118.75 274.484 118.75 274.484 C 121.87 262.887 155.254 284.277 148.574 353.592 Z" fill="#6c63ff" style=""/>
  <path d="M 148.574 353.592 C 148.766 397.361 119.445 432.986 119.445 432.986 C 119.445 432.986 89.814 397.647 89.622 353.877 C 89.43 310.108 118.75 274.484 118.75 274.484 C 121.87 262.887 155.254 284.277 148.574 353.592 Z" opacity="0.1" style="isolation: isolate;"/>
  <rect y="337.638" width="1.484" height="125.176" fill="#3f3d56" x="80.021" style=""/>
  <path d="M 109.352 353.593 C 144.709 363.213 106.711 386.044 99.645 399.335 L 99.645 399.341 C 94.882 410.754 88.788 421.501 81.505 431.338 C 80.689 432.418 80.221 432.984 80.221 432.984 L 80.021 432.741 C 36.968 374.19 53.641 239.217 80.021 275.094 C 87.802 285.172 94.292 296.278 99.327 308.126 L 99.327 308.132 C 104.791 320.981 93.74 349.347 109.352 353.593 Z" fill="#6c63ff" style=""/>
  <path d="M 152.524 240.452 C 152.524 240.452 133.336 240.275 109.568 240.388 C 98.145 240.442 78.179 239.188 70.455 239.296 L 80.021 226.708 C 88.331 220.025 99.291 214.701 109.485 220.732 C 129.515 232.588 152.524 240.452 152.524 240.452 Z" fill="#f2f2f2" style=""/>
  <path d="M 195.853 112.008 C 172.086 112.123 152.74 112.492 152.74 112.492 C 152.74 112.492 175.736 80.502 195.767 92.354 C 215.798 104.206 238.809 112.076 238.809 112.076 C 238.809 112.076 219.62 111.894 195.853 112.008 Z" fill="#f2f2f2" style=""/>
  <path d="M 261.912 122.953 L 359.867 123.968 C 361.541 131.611 360.683 132.56 362.984 151.591 L 369.684 215.748 L 342.51 178.949 L 342.454 178.916 L 261.138 134.62 L 259.524 133.741 C 254.588 131.053 256.359 123.239 261.912 122.953 Z" fill="#3f3d56" style=""/>
  <rect x="242.308" y="144.967" width="51.879" height="11.273" fill="#f2f2f2" style=""/>
  <path d="M 274.157 386.74 L 250.018 386.74 C 249.506 315.323 249.23 254.347 250.018 183.922 L 274.157 183.922 C 274.202 254.408 274.294 320.837 274.157 386.74 Z" fill="#f2f2f2" style=""/>
</svg>