<?xml version="1.0" encoding="utf-8"?>
<svg viewBox="0 0 500 500" xmlns="http://www.w3.org/2000/svg">
  <path d="M 409.778 263.045 C 416.786 263.981 423.76 265.16 430.695 266.58 L 430.695 267.855 C 423.802 266.456 416.831 265.295 409.778 264.368 C 396.399 262.607 382.918 261.717 369.423 261.701 L 368.967 261.701 C 325.606 261.733 282.759 271.082 243.339 289.112 C 235.171 292.832 227.186 296.902 219.384 301.316 C 193.526 315.955 169.903 334.216 149.235 355.544 C 135.262 369.959 122.74 385.707 111.849 402.563 C 110.468 404.694 109.117 406.843 107.795 409.013 C 102.48 417.715 97.608 426.68 93.197 435.872 C 83.766 455.543 76.524 476.187 71.604 497.432 C 71.488 497.888 71.383 498.349 71.281 498.812 C 71.253 498.943 71.217 499.081 71.191 499.211 L 69.844 498.909 C 69.852 498.873 69.858 498.846 69.865 498.812 C 69.969 498.349 70.072 497.895 70.181 497.432 C 75.212 475.667 82.64 454.524 92.335 434.39 L 92.335 434.384 C 96.985 424.695 102.147 415.257 107.795 406.113 C 109.121 403.962 110.472 401.828 111.849 399.709 C 122.738 382.996 135.224 367.373 149.131 353.062 C 157.635 344.311 166.658 336.077 176.151 328.402 L 176.158 328.396 C 189.713 317.447 204.173 307.668 219.384 299.159 C 225.828 295.547 232.362 292.198 238.99 289.112 C 279.865 269.999 324.478 260.165 369.616 260.315 C 383.048 260.353 396.464 261.263 409.778 263.045 Z" fill="#3f3d56" style="" transform="matrix(0.9999999999999999, 0, 0, 0.9999999999999999, 0, -7.105427357601002e-15)"/>
  <circle cx="552.929" cy="-27.152" r="54.315" fill="#ff6584" style="" transform="matrix(0.6905300617218018, 0, 0, 0.6892169713973999, -117.45914634256278, 88.05502450548147)"/>
  <path d="M 102.769 490.708 C 103.938 495.025 107.946 497.697 107.946 497.697 C 107.946 497.697 110.055 493.372 108.886 489.056 C 107.715 484.741 103.709 482.068 103.709 482.068 C 103.709 482.068 101.6 486.393 102.769 490.708 Z" fill="#3f3d56" style="" transform="matrix(0.9999999999999999, 0, 0, 0.9999999999999999, 0, -7.105427357601002e-15)"/>
  <path d="M 104.488 489.78 C 107.696 492.9 108.089 497.693 108.089 497.693 C 108.089 497.693 103.278 497.43 100.068 494.313 C 96.857 491.194 96.466 486.399 96.466 486.399 C 96.466 486.399 101.278 486.662 104.488 489.78 Z" fill="#6c63ff" style="" transform="matrix(0.9999999999999999, 0, 0, 0.9999999999999999, 0, -7.105427357601002e-15)"/>
  <path d="M 191.848 490.708 C 193.017 495.025 197.023 497.697 197.023 497.697 C 197.023 497.697 199.134 493.372 197.965 489.056 C 196.794 484.741 192.788 482.068 192.788 482.068 C 192.788 482.068 190.678 486.393 191.848 490.708 Z" fill="#3f3d56" style="" transform="matrix(0.9999999999999999, 0, 0, 0.9999999999999999, 0, -7.105427357601002e-15)"/>
  <path d="M 193.566 489.78 C 196.775 492.9 197.168 497.693 197.168 497.693 C 197.168 497.693 192.357 497.43 189.146 494.313 C 185.936 491.194 185.544 486.399 185.544 486.399 C 185.544 486.399 190.357 486.662 193.566 489.78 Z" fill="#6c63ff" style="" transform="matrix(0.9999999999999999, 0, 0, 0.9999999999999999, 0, -7.105427357601002e-15)"/>
  <path d="M 430.695 112.227 L 430.695 156.795 L 409.778 170.869 L 379.05 191.531 L 344.903 214.503 L 291.317 187.762 L 223.611 153.976 L 209.511 146.939 L 191.735 132.766 L 229.798 91.96 L 251.789 73.062 C 265.347 65.469 266.035 64.916 287.228 63.971 L 305.502 63.594 C 331.471 63.594 430.695 86.306 430.695 112.227 Z" fill="#3f3d56" style="" transform="matrix(0.9999999999999999, 0, 0, 0.9999999999999999, 0, -7.105427357601002e-15)"/>
  <path d="M 427.584 128.847 L 466.159 147.408 C 465.942 272.529 467.39 366.752 468.994 498.173 L 404.392 498.846 L 402.976 497.432 L 366.309 460.842 L 345.027 439.602 L 345.585 435.507 L 347.519 421.427 L 351.766 390.461 L 356.4 356.674 L 361.033 322.896 L 365.667 289.112 L 369.423 261.701 L 369.616 260.315 L 370.299 255.325 L 374.934 221.541 L 379.05 191.531 L 379.567 187.762 L 382.979 162.895 L 384.394 152.569 L 409.778 135.677 L 427.584 128.847 Z" fill="#ccc" style="" transform="matrix(0.9999999999999999, 0, 0, 0.9999999999999999, 0, -7.105427357601002e-15)"/>
  <path d="M 190.466 133.327 L 425.743 129.607 C 430.067 170.712 430.525 498.619 428.936 498.848 L 195.408 498.848 C 186.464 364.52 182.405 235.04 190.466 133.327 Z" fill="#f2f2f2" style="" transform="matrix(0.9999999999999999, 0, 0, 0.9999999999999999, 0, -7.105427357601002e-15)"/>
  <rect x="278.616" y="410.167" width="39.49" height="88.682" fill="#ccc" style="" transform="matrix(0.9999999999999999, 0, 0, 0.9999999999999999, 0, -7.105427357601002e-15)"/>
  <rect x="219.382" y="356.678" width="163.599" height="33.783" fill="#3f3d56" style="" transform="matrix(0.9999999999999999, 0, 0, 0.9999999999999999, 0, -7.105427357601002e-15)"/>
  <rect x="325.724" y="437.396" width="69.752" height="14.403" fill="#3f3d56" style="" rx="5.636" ry="5.636" transform="matrix(0.9999999999999999, 0, 0, 0.9999999999999999, 0, -7.105427357601002e-15)"/>
  <rect x="201.43" y="437.396" width="69.752" height="14.403" fill="#3f3d56" style="" rx="5.636" ry="5.636" transform="matrix(0.9999999999999999, 0, 0, 0.9999999999999999, 0, -7.105427357601002e-15)"/>
  <rect x="219.382" y="289.109" width="163.599" height="33.783" fill="#3f3d56" style="" transform="matrix(0.9999999999999999, 0, 0, 0.9999999999999999, 0, -7.105427357601002e-15)"/>
  <rect x="219.382" y="221.543" width="163.599" height="33.783" fill="#3f3d56" style="" transform="matrix(0.9999999999999999, 0, 0, 0.9999999999999999, 0, -7.105427357601002e-15)"/>
  <rect x="219.382" y="153.976" width="163.599" height="33.783" fill="#3f3d56" style="" rx="3.549" ry="3.549" transform="matrix(0.9999999999999999, 0, 0, 0.9999999999999999, 0, -7.105427357601002e-15)"/>
  <rect y="497.432" width="373.577" height="1.378" fill="#3f3d56" x="57.117" style="" transform="matrix(0.9999999999999999, 0, 0, 0.9999999999999999, 0, -7.105427357601002e-15)"/>
  <rect x="107.792" y="338.282" width="4.056" height="159.935" fill="#3f3d56" style="" transform="matrix(0.9999999999999999, 0, 0, 0.9999999999999999, 0, -7.105427357601002e-15)"/>
  <path d="M 149.289 358.665 C 149.546 414.589 110.124 460.108 110.124 460.108 C 110.124 460.108 70.284 414.955 70.026 359.028 C 69.768 303.103 109.19 257.585 109.19 257.585 C 113.384 242.768 158.27 270.099 149.289 358.665 Z" fill="#6c63ff" style="" transform="matrix(0.9999999999999999, 0, 0, 0.9999999999999999, 0, -7.105427357601002e-15)"/>
  <path d="M 149.289 358.665 C 149.546 414.589 110.124 460.108 110.124 460.108 C 110.124 460.108 70.284 414.955 70.026 359.028 C 69.768 303.103 109.19 257.585 109.19 257.585 C 113.384 242.768 158.27 270.099 149.289 358.665 Z" opacity="0.1" style="isolation: isolate;" transform="matrix(0.9999999999999999, 0, 0, 0.9999999999999999, 0, -7.105427357601002e-15)"/>
  <rect y="338.28" width="1.995" height="159.94" fill="#3f3d56" x="57.117" style="" transform="matrix(0.9999999999999999, 0, 0, 0.9999999999999999, 0, -7.105427357601002e-15)"/>
  <path d="M 96.553 358.666 C 144.091 370.957 93.002 400.129 83.502 417.111 L 83.502 417.118 C 77.098 431.702 68.905 445.434 59.113 458.003 C 58.015 459.382 57.386 460.105 57.386 460.105 L 57.117 459.795 C -0.769 384.983 21.648 212.524 57.117 258.366 C 67.579 271.242 76.305 285.433 83.075 300.571 L 83.075 300.579 C 90.422 316.996 75.562 353.24 96.553 358.666 Z" fill="#6c63ff" style="" transform="matrix(0.9999999999999999, 0, 0, 0.9999999999999999, 0, -7.105427357601002e-15)"/>
  <path d="M 180.724 215.757 C 180.724 215.757 128.801 213.877 96.844 214.021 C 81.486 214.09 44.191 214.97 33.807 215.108 L 57.117 170.888 C 83.965 148.281 122.214 160.514 134.177 178.976 C 150.587 204.301 180.724 215.757 180.724 215.757 Z" fill="#f2f2f2" style="" transform="matrix(0.9999999999999999, 0, 0, 0.9999999999999999, 0, -7.105427357601002e-15)"/>
  <path d="M 212.856 49.986 C 180.901 50.133 132.249 50.604 132.249 50.604 C 132.249 50.604 156.2 -4.337 209.256 5.841 C 262.313 16.02 270.612 50.073 270.612 50.073 C 270.612 50.073 244.812 49.84 212.856 49.986 Z" fill="#f2f2f2" style="" transform="matrix(0.9999999999999999, 0, 0, 0.9999999999999999, 0, -7.105427357601002e-15)"/>
  <path d="M 301.673 63.971 L 451.735 63.628 C 459.492 66.416 461.405 86.151 464.498 110.467 L 465.734 181.02 L 426.926 128.889 L 426.483 129.893 L 300.633 78.878 L 298.464 77.755 C 291.827 74.32 294.208 64.336 301.673 63.971 Z" fill="#3f3d56" style="" transform="matrix(0.9999999999999999, 0, 0, 0.9999999999999999, 0, -7.105427357601002e-15)"/>
  <rect x="275.316" y="92.099" width="69.752" height="14.403" fill="#f2f2f2" style="" rx="5.636" ry="5.636" transform="matrix(0.9999999999999999, 0, 0, 0.9999999999999999, 0, -7.105427357601002e-15)"/>
  <path d="M 318.138 401.018 L 285.682 401.018 C 284.994 309.767 284.623 231.856 285.682 141.872 L 318.138 141.872 C 318.198 231.934 318.321 316.813 318.138 401.018 Z" fill="#f2f2f2" style="" transform="matrix(0.9999999999999999, 0, 0, 0.9999999999999999, 0, -7.105427357601002e-15)"/>
</svg>